<svg width="81.588257" height="82.705933" viewBox="0 0 81.5883 82.7059" fill="none" xmlns="http://www.w3.org/2000/svg" xmlns:xlink="http://www.w3.org/1999/xlink">
	<desc>
			Created with Pixso.
	</desc>
	<defs>
		<clipPath id="clip9_288">
			<rect id="Icons/illustration" width="81.588234" height="82.705879" fill="white" fill-opacity="0"/>
		</clipPath>
	</defs>
	<rect id="Icons/illustration" width="73.000000" height="74.000000" transform="translate(0.000000 8.705811)" fill="#FFFFFF" fill-opacity="0"/>
	<rect id="Icons/illustration" width="73.000000" height="74.000000" transform="translate(0.000000 8.705811)" fill="#FFFFFF" fill-opacity="0"/>
	<rect id="Icons/illustration" width="81.588234" height="82.705879" fill="#FFFFFF" fill-opacity="0"/>
	<rect id="Icons/illustration" width="81.588234" height="82.705879" fill="#FFFFFF" fill-opacity="0"/>
	<rect id="Icons/illustration" width="81.588234" height="82.705879" fill="#FFFFFF" fill-opacity="0"/>
	<g clip-path="url(#clip9_288)">
		<path id="Vector" d="M37.92 60C37.26 60 36.73 60.55 36.73 61.22C36.73 61.88 37.26 62.43 37.92 62.43L43.66 62.43C44.32 62.43 44.85 61.88 44.85 61.22C44.85 60.55 44.32 60 43.66 60L37.92 60Z" fill="#FFB400" fill-opacity="1.000000" fill-rule="nonzero"/>
		<path id="Vector" d="M14.34 41.19L22.24 41.19C22.72 42.46 23.93 43.37 25.36 43.37C26.78 43.37 28 42.46 28.48 41.19L30.06 41.19C30.72 41.19 31.25 40.65 31.25 39.98C31.25 39.31 30.72 38.77 30.06 38.77L28.48 38.77C28 37.5 26.78 36.59 25.36 36.59C23.93 36.59 22.72 37.5 22.24 38.77L14.34 38.77C13.68 38.77 13.14 39.31 13.14 39.98C13.14 40.65 13.68 41.19 14.34 41.19ZM25.36 39.01C25.89 39.01 26.31 39.45 26.31 39.98C26.31 40.51 25.89 40.95 25.36 40.95C24.83 40.95 24.4 40.51 24.4 39.98C24.4 39.45 24.83 39.01 25.36 39.01Z" fill="#FFB400" fill-opacity="1.000000" fill-rule="nonzero"/>
		<path id="Vector" d="M14.34 34.25L15.86 34.25C16.35 35.52 17.56 36.43 18.98 36.43C20.41 36.43 21.62 35.52 22.11 34.25L30.06 34.25C30.72 34.25 31.25 33.7 31.25 33.03C31.25 32.37 30.72 31.82 30.06 31.82L22.11 31.82C21.62 30.55 20.41 29.64 18.98 29.64C17.56 29.64 16.35 30.55 15.86 31.82L14.34 31.82C13.68 31.82 13.14 32.37 13.14 33.03C13.14 33.7 13.68 34.25 14.34 34.25ZM18.98 32.06C19.51 32.06 19.94 32.5 19.94 33.03C19.94 33.57 19.51 34 18.98 34C18.46 34 18.03 33.57 18.03 33.03C18.03 32.5 18.46 32.06 18.98 32.06Z" fill="#FFB400" fill-opacity="1.000000" fill-rule="nonzero"/>
		<path id="Vector" d="M31.49 21.89C31.49 22.56 30.96 23.1 30.3 23.1C29.64 23.1 29.1 22.56 29.1 21.89C29.1 21.22 29.64 20.68 30.3 20.68C30.96 20.68 31.49 21.22 31.49 21.89Z" fill="#FFB400" fill-opacity="1.000000" fill-rule="evenodd"/>
		<path id="Vector" d="M28.2 21.89C28.2 22.56 27.67 23.1 27.01 23.1C26.35 23.1 25.81 22.56 25.81 21.89C25.81 21.22 26.35 20.68 27.01 20.68C27.67 20.68 28.2 21.22 28.2 21.89Z" fill="#FFB400" fill-opacity="1.000000" fill-rule="evenodd"/>
		<path id="Vector" d="M24.91 21.89C24.91 22.56 24.37 23.1 23.71 23.1C23.05 23.1 22.52 22.56 22.52 21.89C22.52 21.22 23.05 20.68 23.71 20.68C24.37 20.68 24.91 21.22 24.91 21.89Z" fill="#FFB400" fill-opacity="1.000000" fill-rule="evenodd"/>
		<path id="Vector" d="M78 8.15L77.55 8.15L77.88 7.81C78.88 6.8 78.88 5.15 77.88 4.13L75.27 1.48C74.27 0.47 72.64 0.47 71.64 1.48L65.06 8.15L3.58 8.15C1.6 8.15 0 9.78 0 11.78L0 62.1C0 64.55 1.96 66.54 4.38 66.54L32.69 66.54L32.69 75.11L26.93 75.11C25.39 75.11 24.14 76.38 24.14 77.94L24.14 79.15C24.14 80.7 25.39 81.97 26.93 81.97L54.65 81.97C56.19 81.97 57.44 80.7 57.44 79.15L57.44 77.94C57.44 76.38 56.19 75.11 54.65 75.11L48.89 75.11L48.89 66.54L61.66 66.54C62.32 66.54 62.86 66 62.86 65.33C62.86 64.66 62.32 64.12 61.66 64.12L4.38 64.12C3.28 64.12 2.39 63.21 2.39 62.1L2.39 58.51L79.19 58.51L79.19 62.1C79.19 63.21 78.3 64.12 77.2 64.12L67.24 64.12C66.58 64.12 66.05 64.66 66.05 65.33C66.05 66 66.58 66.54 67.24 66.54L77.2 66.54C79.62 66.54 81.58 64.55 81.58 62.1L81.58 11.78C81.58 9.78 79.97 8.15 78 8.15ZM54.65 77.53C54.87 77.53 55.05 77.71 55.05 77.94L55.05 79.15C55.05 79.37 54.87 79.55 54.65 79.55L26.93 79.55C26.71 79.55 26.53 79.37 26.53 79.15L26.53 77.94C26.53 77.71 26.71 77.53 26.93 77.53L54.65 77.53ZM35.08 66.54L46.5 66.54L46.5 75.11L35.08 75.11L35.08 66.54ZM73.33 3.2C73.4 3.13 73.51 3.13 73.58 3.2L76.19 5.85C76.26 5.92 76.26 6.03 76.19 6.1L73.7 8.63L70.83 5.73L73.33 3.2ZM69.14 7.44L72.01 10.34L71.17 11.19L68.31 8.28L69.14 7.44ZM66.62 10L69.48 12.9L55.34 27.24L52.48 24.33L66.62 10ZM64.85 21.07C66.48 21.07 67.8 22.42 67.8 24.06C67.8 25.71 66.48 27.05 64.85 27.05C63.23 27.05 61.9 25.71 61.9 24.06C61.9 24.04 61.91 24.03 61.91 24.01L64.8 21.08C64.81 21.08 64.83 21.07 64.85 21.07ZM53.27 28.56L49.73 30.02L51.17 26.44L53.27 28.56ZM79.19 56.09L2.39 56.09L2.39 11.78C2.39 11.12 2.92 10.57 3.58 10.57L62.67 10.57L60.85 12.42L20.23 12.42C19.57 12.42 19.04 12.96 19.04 13.63C19.04 14.3 19.57 14.84 20.23 14.84L58.46 14.84L50.03 23.39C49.79 23.63 49.61 23.92 49.48 24.24L46.81 30.86C46.56 31.47 46.7 32.16 47.16 32.63C47.47 32.94 47.88 33.1 48.3 33.1C48.5 33.1 48.71 33.06 48.9 32.98L55.44 30.28C55.74 30.15 56.02 29.97 56.25 29.74L59.89 26.05C60.67 28.05 62.6 29.47 64.85 29.47C67.8 29.47 70.19 27.05 70.19 24.06C70.19 21.78 68.79 19.83 66.81 19.03L70.95 14.84L74.98 14.84L74.98 51.82L74.35 51.82L70.02 44.21C69.69 43.63 68.95 43.43 68.38 43.77C67.81 44.1 67.62 44.85 67.95 45.42L71.59 51.82L54.89 51.82L53.1 48.67L61.45 34.02L65.16 40.53C65.49 41.11 66.22 41.31 66.79 40.97C67.36 40.64 67.56 39.9 67.23 39.32L63.27 32.37C62.89 31.7 62.21 31.3 61.45 31.3C60.69 31.3 60.01 31.7 59.63 32.37L51.72 46.25L41.58 28.44C41.2 27.77 40.52 27.37 39.75 27.37C38.99 27.37 38.31 27.77 37.93 28.44L35.24 33.17L35.24 20.19C35.24 18.63 33.99 17.36 32.45 17.36L11.95 17.36C10.41 17.36 9.16 18.63 9.16 20.19L9.16 46.68C9.16 47.79 10.05 48.7 11.15 48.7L26.4 48.7L24.62 51.82L6.6 51.82L6.6 14.84L14.66 14.84C15.32 14.84 15.85 14.3 15.85 13.63C15.85 12.96 15.32 12.42 14.66 12.42L6.2 12.42C5.1 12.42 4.21 13.33 4.21 14.44L4.21 52.22C4.21 53.33 5.1 54.24 6.2 54.24L75.38 54.24C76.48 54.24 77.37 53.33 77.37 52.22L77.37 14.44C77.37 13.33 76.48 12.42 75.38 12.42L73.34 12.42L75.16 10.57L78 10.57C78.66 10.57 79.19 11.12 79.19 11.78L79.19 56.09ZM32.85 26.9L32.85 46.27L11.55 46.27L11.55 26.9L32.85 26.9ZM11.55 24.47L11.55 20.19C11.55 19.96 11.73 19.78 11.95 19.78L32.45 19.78C32.67 19.78 32.85 19.96 32.85 20.19L32.85 24.47L11.55 24.47ZM29.16 48.7L33.25 48.7C34.34 48.7 35.24 47.79 35.24 46.68L35.24 44.11C35.54 44.26 35.87 44.34 36.22 44.34C37.03 44.34 37.77 43.91 38.17 43.19L40.21 39.62C40.27 39.51 40.36 39.49 40.43 39.49C40.5 39.49 40.59 39.51 40.65 39.62L41.91 41.82C42.32 42.54 43.05 42.97 43.86 42.97C44.68 42.97 45.41 42.54 45.82 41.82L46.13 41.28L52.13 51.82L27.38 51.82L29.16 48.7ZM35.24 40.06L35.24 38.02L39.76 30.09L44.75 38.85L43.86 40.41L42.72 38.41C42.24 37.57 41.39 37.07 40.43 37.07C39.47 37.07 38.62 37.57 38.14 38.41L36.22 41.78L35.24 40.06Z" fill="#FFB400" fill-opacity="1.000000" fill-rule="nonzero"/>
	</g>
</svg>
